#!OML:ASF F:\VICON\USERDATA\INSTALL\Justin_Nancy\Justin_Nancy.ASF
:FULLY-SPECIFIED
:DEGREES
404
root 1.0601 18.9407 19.296 4.55848 1.5619 -1.12178
lowerback 8.62636 1.08794 1.1274
upperback -1.1935 1.72129 2.4539
thorax -6.13864 0.85326 1.69494
lowerneck -20.5112 -5.06352 -10.0971
upperneck 16.6753 -5.75312 8.60881
head 9.16772 -2.41795 3.82445
rclavicle 7.35503e-015 6.36111e-015
rhumerus -37.8323 1.35205 -73.3063
rradius 85.0072
rwrist -10.1839
rhand -21.5229 10.7747
rfingers 7.12502
rthumb 4.86944 -19.1493
lclavicle 7.35503e-015 6.36111e-015
lhumerus -39.1001 6.86833 76.4248
lradius 52.3805
lwrist 4.54499
lhand -28.804 23.8091
lfingers 7.12502
lthumb -2.16242 53.7779
rfemur -11.1407 6.14086 18.664
rtibia 29.3213
rfoot 13.8902 -7.41824
rtoes 14.8358
lfemur -19.4506 -0.332719 -19.7211
ltibia 31.3863
lfoot -0.840373 5.97669
ltoes -10.7838
405
root 1.06059 18.9586 19.4117 4.71776 2.30594 -1.28239
lowerback 8.62657 0.975631 1.19092
upperback -1.2053 1.58113 2.4913
thorax -6.1474 0.782903 1.7178
lowerneck -20.4184 -5.13282 -10.1725
upperneck 16.3772 -5.84504 8.73887
head 9.065 -2.45382 3.86565
rclavicle -4.57205e-015 1.51076e-014
rhumerus -36.9864 1.01407 -73.1967
rradius 84.5369
rwrist -10.4552
rhand -21.6923 10.6862
rfingers 7.12502
rthumb 4.70593 -19.2415
lclavicle -4.57205e-015 1.51076e-014
lhumerus -39.1337 7.46887 75.6415
lradius 52.2644
lwrist 4.85093
lhand -29.2871 28.6704
lfingers 7.12502
lthumb -2.62902 58.634
rfemur -10.6735 6.04691 18.9766
rtibia 28.9977
rfoot 14.1137 -8.0998
rtoes 15.9001
lfemur -19.5307 -0.955887 -19.4727
ltibia 29.7597
lfoot 1.5295 6.15073
ltoes -5.35099
406
root 1.07424 18.9664 19.5335 4.8457 3.20933 -1.35294
lowerback 8.41325 0.787559 1.33648
upperback -1.12384 1.33644 2.48161
thorax -5.93077 0.657799 1.66164
lowerneck -20.5463 -5.19182 -10.1348
upperneck 16.1283 -5.91846 8.78166
head 9.00979 -2.4779 3.8591
rclavicle -2.5842e-015 -2.78299e-014
rhumerus -36.1779 0.659202 -73.1027
rradius 84.0923
rwrist -10.5661
rhand -21.7429 10.7069
rfingers 7.12502
rthumb 4.65701 -19.222
lclavicle -2.5842e-015 -2.78299e-014
lhumerus -39.113 8.19234 74.8483
lradius 52.2108
lwrist 5.15343
lhand -26.9615 22.8356
lfingers 7.12502
lthumb -0.382924 52.815
rfemur -10.1062 5.6108 19.1154
rtibia 28.7129
rfoot 14.2618 -8.58835
rtoes 16.8826
lfemur -19.6643 -1.57509 -19.3927
ltibia 28.2775
lfoot 3.12658 5.65252
ltoes -5.17606
407
root 1.09039 18.9642 19.6473 4.86546 4.00372 -1.44204
lowerback 8.57507 0.653019 1.51036
upperback -1.24968 1.18046 2.41481
thorax -6.14732 0.573368 1.51367
lowerneck -20.38 -5.26885 -9.85835
upperneck 15.9932 -6.0844 8.63371
head 8.93719 -2.55784 3.73689
rclavicle -1.00386e-014 -1.43125e-014
rhumerus -36.0425 0.210403 -73.1073
rradius 83.9221
rwrist -10.667
rhand -21.5619 10.6726
rfingers 7.12502
rthumb 4.83177 -19.2523
lclavicle -1.00386e-014 -1.43125e-014
lhumerus -39.5849 8.5483 74.0229
lradius 52.5271
lwrist 6.0145
lhand -26.8697 24.5702
lfingers 7.12502
lthumb -0.294231 54.5498
rfemur -9.48805 5.27467 19.2842
rtibia 28.4816
rfoot 14.3982 -8.76678
rtoes 16.2461
lfemur -19.786 -2.32552 -19.2522
ltibia 26.9546
lfoot 4.10181 5.38159
ltoes -6.76814
408
root 1.09613 18.9532 19.7541 4.85925 4.70324 -1.58663
lowerback 8.99388 0.591704 1.64771
upperback -1.39214 1.12723 2.33994
thorax -6.53168 0.539377 1.36252
lowerneck -20.2431 -5.45981 -9.79289
upperneck 16.027 -6.3768 8.60306
head 8.95113 -2.69695 3.67391
rclavicle -1.05853e-014 1.43125e-014
rhumerus -35.7374 -0.409204 -73.1741
rradius 83.487
rwrist -10.664
rhand -21.3051 10.6628
rfingers 7.12502
rthumb 5.07974 -19.2563
lclavicle -1.05853e-014 1.43125e-014
lhumerus -39.8999 8.70469 73.2762
lradius 52.7992
lwrist 7.12228
lhand -27.5843 26.0735
lfingers 7.12502
lthumb -0.984423 56.051
rfemur -8.95759 5.22524 19.5968
rtibia 28.3191
rfoot 14.4458 -9.12355
rtoes 15.3948
lfemur -19.95 -2.94544 -19.0154
ltibia 25.7744
lfoot 4.64714 5.06532
ltoes -8.37907
